<svg width="1000" height="220" viewBox="0 0 1000 220" xmlns="http://www.w3.org/2000/svg">
  <defs>
    <linearGradient id="bg" x1="0%" y1="0%" x2="100%" y2="100%">
      <stop offset="0%" stop-color="#0F2027"/>
      <stop offset="50%" stop-color="#12384a"/>
      <stop offset="100%" stop-color="#00A8E8"/>
    </linearGradient>
    <linearGradient id="waveGrad" x1="0%" y1="0%" x2="100%" y2="0%">
      <stop offset="0%" stop-color="#00A8E8" stop-opacity="0.35"/>
      <stop offset="100%" stop-color="#0F2027" stop-opacity="0.35"/>
    </linearGradient>
  </defs>

  <rect width="1000" height="220" fill="url(#bg)"/>

  <path d="M0,170 C150,210 300,130 500,165 C700,200 850,140 1000,170 L1000,220 L0,220 Z"
        fill="url(#waveGrad)"/>
  <path d="M0,190 C180,150 320,220 520,190 C720,160 860,210 1000,185 L1000,220 L0,220 Z"
        fill="#00A8E8" opacity="0.25"/>

  <circle cx="70" cy="45" r="3" fill="#00A8E8" opacity="0.8"/>
  <circle cx="930" cy="60" r="2" fill="#ffffff" opacity="0.6"/>
  <circle cx="860" cy="35" r="2" fill="#00A8E8" opacity="0.7"/>
  <circle cx="120" cy="80" r="2" fill="#ffffff" opacity="0.5"/>

  <text x="500" y="98" font-family="Segoe UI, Verdana, sans-serif" font-size="46" font-weight="700"
        fill="#ffffff" text-anchor="middle" letter-spacing="1">
    Nitesh Vishwakarma
  </text>

  <text x="500" y="135" font-family="Segoe UI, Verdana, sans-serif" font-size="19" font-weight="400"
        fill="#8fd6f5" text-anchor="middle" letter-spacing="0.5">
    Aspiring Cloud &amp; DevOps Engineer  ·  AWS · Terraform · Docker · Kubernetes
  </text>
</svg>
